<?xml version="1.0" encoding="UTF-8" standalone="no"?>
<!-- Created with Inkscape (http://www.inkscape.org/) -->

<svg
   width="84.66098mm"
   height="59.064224mm"
   viewBox="0 0 84.66098 59.064224"
   version="1.1"
   id="svg1"
   xml:space="preserve"
   inkscape:export-filename="email2.svg"
   inkscape:export-xdpi="96"
   inkscape:export-ydpi="96"
   xmlns:inkscape="http://www.inkscape.org/namespaces/inkscape"
   xmlns:sodipodi="http://sodipodi.sourceforge.net/DTD/sodipodi-0.dtd"
   xmlns="http://www.w3.org/2000/svg"
   xmlns:svg="http://www.w3.org/2000/svg"><sodipodi:namedview
     id="namedview1"
     pagecolor="#505050"
     bordercolor="#eeeeee"
     borderopacity="1"
     inkscape:showpageshadow="0"
     inkscape:pageopacity="0"
     inkscape:pagecheckerboard="0"
     inkscape:deskcolor="#505050"
     inkscape:document-units="mm" /><defs
     id="defs1" /><g
     inkscape:label="Layer 1"
     inkscape:groupmode="layer"
     id="layer1"
     transform="translate(-57.891042,-123.66581)"><g
       id="g4"
       inkscape:export-filename="g4.svg"
       inkscape:export-xdpi="96"
       inkscape:export-ydpi="96"><path
         style="fill:#000000"
         d="m 58.024882,141.26063 c -0.07372,0 -0.133842,7.72035 -0.133842,17.15606 0,13.72316 0.07215,17.39565 0.360702,18.35443 0.763465,2.53681 3.054677,4.86597 5.564518,5.65599 0.868304,0.27332 8.240231,0.33174 36.80499,0.29145 l 35.71875,-0.0506 1.31568,-0.64751 c 1.67854,-0.82598 3.29572,-2.44317 4.12171,-4.12171 l 0.64751,-1.3162 0.0739,-17.66093 c 0.0403,-9.71351 0.0127,-17.66094 -0.061,-17.66094 -0.0737,0 -8.3545,5.30613 -18.40198,11.79153 -10.04748,6.48539 -18.83098,12.05158 -19.51871,12.36927 -1.05598,0.48781 -1.72319,0.57774 -4.29276,0.57774 -2.55943,0 -3.239066,-0.0905 -4.278805,-0.57102 -0.67984,-0.3142 -9.460111,-5.88038 -19.511471,-12.36928 -10.051353,-6.48888 -18.335495,-11.79824 -18.409212,-11.79824 z"
         id="path4" /><path
         style="fill:#000000"
         d="m 64.108232,123.66584 -1.322917,0.65525 c -2.340992,1.15933 -4.284078,3.60437 -4.736145,5.95933 l -0.152446,0.79375 20.526396,13.22917 c 11.289329,7.27603 20.783131,13.30352 21.09742,13.39453 0.3143,0.091 0.86868,0.1026 1.23248,0.0253 0.36381,-0.0772 9.91742,-6.10524 21.23023,-13.39505 v 5.2e-4 l 20.56877,-13.25449 -0.16226,-0.79375 c -0.49371,-2.41048 -2.40687,-4.82189 -4.73408,-5.96708 l -1.3162,-0.6475 h -36.11562 z"
         id="path3" /></g></g></svg>
