<?xml version="1.0" encoding="UTF-8" standalone="no"?>
<!-- Created with Inkscape (http://www.inkscape.org/) -->

<svg
   width="104.65498mm"
   height="104.6448mm"
   viewBox="0 0 104.65498 104.6448"
   version="1.1"
   id="svg1"
   xml:space="preserve"
   xmlns:inkscape="http://www.inkscape.org/namespaces/inkscape"
   xmlns:sodipodi="http://sodipodi.sourceforge.net/DTD/sodipodi-0.dtd"
   xmlns="http://www.w3.org/2000/svg"
   xmlns:svg="http://www.w3.org/2000/svg"><sodipodi:namedview
     id="namedview1"
     pagecolor="#505050"
     bordercolor="#eeeeee"
     borderopacity="1"
     inkscape:showpageshadow="0"
     inkscape:pageopacity="0"
     inkscape:pagecheckerboard="0"
     inkscape:deskcolor="#505050"
     inkscape:document-units="mm" /><defs
     id="defs1" /><g
     inkscape:label="Layer 1"
     inkscape:groupmode="layer"
     id="layer1"
     transform="translate(-50.278993,-75.192175)"><path
       d="m 102.941,100.65846 c -4.062872,-0.0441 -8.226824,0.84818 -12.206487,2.81843 -2.752307,1.36261 -4.561855,2.68713 -7.017142,5.13715 -2.444116,2.43887 -3.696213,4.1516 -5.118034,7.00061 -6.036378,12.09554 -2.140358,26.6688 9.160164,34.26302 5.074385,3.41011 11.24821,4.99274 17.266129,4.42661 11.45521,-1.07762 20.90758,-9.12723 23.66781,-20.15536 0.64613,-2.58152 0.7988,-3.92134 0.78083,-6.85385 -0.0141,-2.30074 -0.0871,-3.12868 -0.4222,-4.79454 C 126.4064,109.3489 115.12963,100.79072 102.941,100.65846 Z m -0.55914,9.47332 c 2.8459,-0.0466 5.6892,0.59102 8.2455,1.89084 4.68843,2.384 8.17724,7.08114 9.18962,12.37237 0.28999,1.51564 0.28999,4.76099 0,6.27662 -1.38252,7.2258 -6.99251,12.76222 -14.21619,14.02912 -1.60732,0.2819 -4.44637,0.28097 -6.005319,-0.002 -8.340921,-1.51338 -14.354679,-8.75825 -14.354679,-17.29352 0,-5.65476 2.973493,-11.20269 7.666199,-14.30403 1.725268,-1.1402 2.590502,-1.56056 4.4111,-2.14147 1.64778,-0.52578 3.356239,-0.7999 5.063769,-0.82786 z"
       style="stroke-width:0.600616"
       id="path7" /><path
       d="m 130.53105,93.526074 c -1.74519,0 -1.87069,0.02234 -2.78122,0.502812 -1.27759,0.674209 -2.33248,1.796024 -2.9652,3.152262 -0.462,0.990309 -0.51799,1.26036 -0.51005,2.462899 0.0189,2.856763 1.61972,5.065853 4.34496,5.994983 1.29394,0.44115 2.376,0.45305 3.70727,0.0419 2.72133,-0.84054 4.49002,-3.26224 4.47156,-6.122626 -0.007,-1.097749 -0.0813,-1.432848 -0.52452,-2.383317 -0.62933,-1.349699 -1.68655,-2.472932 -2.96209,-3.146061 -0.91053,-0.48051 -1.03552,-0.502812 -2.78071,-0.502812 z"
       style="stroke-width:0.600616"
       id="path6" /><path
       d="m 106.61468,75.220215 c -25.202969,-0.152747 -31.549751,0.269091 -37.603388,2.501139 -3.927741,1.448204 -6.572746,3.112468 -9.570993,6.021338 -5.337903,5.178781 -7.947374,11.322975 -8.676989,20.430278 -0.644697,8.04732 -0.646111,38.71774 -0.0021,46.72066 0.600612,7.46385 2.552987,13.09267 6.118489,17.63924 1.103338,1.40693 3.513289,3.83643 4.798674,4.83743 2.941018,2.29034 6.477245,3.93816 10.769885,5.01881 3.143298,0.79131 6.89751,1.17065 13.905094,1.4056 3.667187,0.12296 35.105888,-0.0463 37.503138,-0.20205 5.49652,-0.35697 8.65297,-0.9152 12.22096,-2.16111 7.58862,-2.64986 13.4321,-8.40171 16.30495,-16.04967 1.34335,-3.57618 1.96195,-7.04494 2.33888,-13.11031 0.28358,-4.56307 0.28358,-36.91348 0,-41.47654 -0.38015,-6.11702 -0.98211,-9.490713 -2.33991,-13.110309 -2.96035,-7.89161 -8.91174,-13.583833 -17.00362,-16.26309 -5.50446,-1.822557 -8.88418,-2.080937 -28.7631,-2.201416 z m -1.33273,9.387024 c 8.85412,0.03149 17.29205,0.177324 20.08456,0.419612 6.26255,0.543366 10.26033,2.024599 13.57643,5.029668 3.30047,2.990888 5.26118,7.076613 5.96811,12.436451 0.51839,3.93045 0.62687,8.27961 0.62684,25.11991 -4e-5,17.48453 -0.10665,21.30002 -0.71365,25.477 -0.3717,2.55773 -1.25773,5.43874 -2.22881,7.2471 -1.86684,3.4765 -4.85449,6.20563 -8.4677,7.73493 -3.05727,1.294 -5.94362,1.83523 -11.38328,2.13424 -3.74232,0.20571 -28.338099,0.31806 -35.040243,0.1602 -5.96034,-0.14039 -7.515165,-0.23724 -10.409183,-0.64958 -4.965881,-0.70751 -8.465402,-2.29324 -11.365715,-5.15007 -1.588449,-1.56463 -2.469071,-2.75424 -3.353284,-4.52892 -1.632914,-3.27741 -2.288839,-6.5057 -2.599841,-12.79922 -0.205936,-4.16738 -0.204256,-35.49943 0.0021,-39.4901 0.253747,-4.90839 0.588501,-7.17262 1.457792,-9.852627 1.552567,-4.786524 4.555757,-8.352815 8.815483,-10.469128 3.085675,-1.533023 6.690369,-2.27178 12.446785,-2.551266 4.459049,-0.216494 13.729506,-0.299695 22.583636,-0.2682 z"
       style="stroke-width:0.600616"
       id="path5"
       inkscape:export-filename=".\path5.svg"
       inkscape:export-xdpi="96"
       inkscape:export-ydpi="96" /></g></svg>
