<?xml version="1.0" encoding="UTF-8" standalone="no"?>
<!-- Created with Inkscape (http://www.inkscape.org/) -->

<svg
   width="140.71358mm"
   height="140.82773mm"
   viewBox="0 0 140.71358 140.82773"
   version="1.1"
   id="svg1"
   xml:space="preserve"
   xmlns:inkscape="http://www.inkscape.org/namespaces/inkscape"
   xmlns:sodipodi="http://sodipodi.sourceforge.net/DTD/sodipodi-0.dtd"
   xmlns="http://www.w3.org/2000/svg"
   xmlns:svg="http://www.w3.org/2000/svg"><sodipodi:namedview
     id="namedview1"
     pagecolor="#505050"
     bordercolor="#eeeeee"
     borderopacity="1"
     inkscape:showpageshadow="0"
     inkscape:pageopacity="0"
     inkscape:pagecheckerboard="0"
     inkscape:deskcolor="#505050"
     inkscape:document-units="mm" /><defs
     id="defs1" /><g
     inkscape:label="Layer 1"
     inkscape:groupmode="layer"
     id="layer1"
     transform="translate(-32.326627,-57.116156)"><path
       style="fill:#000000;stroke-width:0.600616"
       d="m 64.918813,197.84547 c -4.255729,-0.21485 -6.756847,-0.57152 -10.03139,-1.43051 -8.244538,-2.16275 -15.277738,-7.95635 -18.993369,-15.64581 -2.15125,-4.45198 -3.053265,-8.6156 -3.408299,-15.73238 -0.212173,-4.25308 -0.212173,-70.753812 0,-75.006897 0.192094,-3.85059 0.506228,-6.523549 1.054015,-8.968611 1.829266,-8.164972 6.691148,-14.944297 13.794635,-19.235007 4.265421,-2.576437 8.716381,-3.858504 15.579135,-4.48746 3.239071,-0.296853 76.53521,-0.296853 79.77428,0 7.79855,0.71472 12.7354,2.353674 17.71431,5.880866 1.85252,1.31237 4.99486,4.401928 6.39313,6.285733 3.16647,4.266006 5.04505,9.089625 5.88912,15.121439 l 0.35581,2.542607 v 40.20497 c 0,38.30225 -0.0141,40.31777 -0.29687,42.58866 -0.33076,2.65585 -1.09712,5.992 -1.83635,7.99411 -3.66084,9.9149 -11.94836,16.91818 -22.49829,19.01196 -4.90208,0.97288 -3.4433,0.94068 -44.01887,0.97156 -20.364686,0.0155 -38.126639,-0.0273 -39.470997,-0.0952 z m 58.937827,-18.25294 c 5.49652,-0.35697 8.65293,-0.91511 12.22093,-2.16102 7.58863,-2.64986 13.43194,-8.40177 16.30479,-16.04974 1.34335,-3.57618 1.96226,-7.04493 2.33919,-13.11031 0.28358,-4.56307 0.28358,-36.91321 0,-41.47627 -0.38015,-6.11703 -0.98234,-9.490722 -2.34014,-13.110322 -2.96035,-7.891618 -8.91171,-13.58378 -17.00359,-16.26304 -5.50447,-1.822559 -8.88429,-2.081275 -28.76323,-2.201754 -25.202995,-0.152747 -31.549448,0.269442 -37.603092,2.501492 -3.927744,1.448205 -6.573058,3.112346 -9.571308,6.021219 -5.337909,5.178786 -7.947459,11.323023 -8.677075,20.430335 -0.644697,8.04733 -0.646044,38.71747 -0.002,46.7204 0.600613,7.46386 2.553136,13.09276 6.118642,17.63933 1.103339,1.40694 3.513462,3.83644 4.798848,4.83744 2.941021,2.29035 6.477117,3.93822 10.769761,5.01887 3.143301,0.79131 6.897287,1.17084 13.904878,1.40579 3.66719,0.12296 35.106186,-0.0467 37.503446,-0.20242 z m -36.152686,-9.22604 c -5.960346,-0.14039 -7.514774,-0.23742 -10.408795,-0.64976 -4.965886,-0.70751 -8.465669,-2.29334 -11.365985,-5.15017 -1.588451,-1.56463 -2.469137,-2.75399 -3.35335,-4.52868 -1.632916,-3.27741 -2.288628,-6.50582 -2.59963,-12.79935 -0.205936,-4.16738 -0.204523,-35.4992 0.0018,-39.48987 0.253747,-4.9084 0.588834,-7.17259 1.458126,-9.852602 1.552568,-4.786529 4.555616,-8.353032 8.815346,-10.469347 3.085678,-1.533024 6.690329,-2.271927 12.446751,-2.551413 8.918107,-0.43299 37.083093,-0.332806 42.668113,0.151772 6.26256,0.543366 10.26067,2.024473 13.57677,5.029545 3.30047,2.990891 5.26106,7.076443 5.96799,12.436285 0.51839,3.93046 0.62693,8.27956 0.6269,25.11988 -4e-5,17.48454 -0.10697,21.30016 -0.71398,25.47714 -0.3717,2.55773 -1.25772,5.43866 -2.2288,7.24703 -1.86684,3.4765 -4.85449,6.20558 -8.4677,7.73488 -3.05727,1.294 -5.94357,1.83513 -11.38324,2.13414 -3.74232,0.20571 -28.338146,0.31838 -35.040296,0.16052 z m 17.321506,-16.06214 c 11.45522,-1.07762 20.90764,-9.12725 23.66787,-20.15539 0.64613,-2.58152 0.79878,-3.9215 0.78081,-6.85401 -0.0141,-2.30074 -0.087,-3.12869 -0.42209,-4.79455 -3.52757,-17.53553 -22.39902,-26.904702 -38.317686,-19.0237 -2.75231,1.36261 -4.56153,2.68719 -7.01682,5.13721 -2.444118,2.43887 -3.696532,4.15193 -5.118355,7.00094 -6.036384,12.09555 -2.140268,26.6684 9.160265,34.26263 5.07439,3.41011 11.24808,4.993 17.266006,4.42687 z m -5.429986,-9.60547 c -8.34093,-1.51338 -14.35467,-8.75836 -14.35467,-17.29364 0,-5.65477 2.97347,-11.20297 7.66618,-14.30432 1.72527,-1.1402 2.5906,-1.56023 4.4112,-2.14115 4.394086,-1.40206 9.219326,-1.01665 13.309396,1.06307 4.68844,2.384 8.17699,7.08077 9.18937,12.37201 0.28999,1.51564 0.28999,4.76131 0,6.27694 -1.38252,7.22581 -6.9927,12.76201 -14.21639,14.02891 -1.60732,0.2819 -4.44614,0.28104 -6.005086,-0.002 z M 132.32656,105.6811 c 2.72134,-0.84054 4.49003,-3.26231 4.47157,-6.122702 -0.007,-1.09775 -0.0808,-1.43322 -0.52402,-2.38369 -0.62933,-1.3497 -1.68661,-2.47245 -2.96215,-3.14558 -0.91053,-0.48051 -1.03579,-0.50317 -2.78098,-0.50317 -1.74519,0 -1.87044,0.0227 -2.78098,0.50317 -1.27759,0.67421 -2.33262,1.79559 -2.96534,3.15183 -0.462,0.99031 -0.51797,1.26061 -0.51003,2.46315 0.0189,2.856762 1.61988,5.065562 4.34512,5.994692 1.29394,0.44115 2.37554,0.45349 3.70681,0.0423 z"
       id="path1" /></g></svg>
