<?xml version="1.0" encoding="UTF-8" standalone="no"?>
<!-- Created with Inkscape (http://www.inkscape.org/) -->

<svg
   width="155.44148mm"
   height="155.37704mm"
   viewBox="0 0 155.44148 155.37704"
   version="1.1"
   id="svg1"
   xml:space="preserve"
   xmlns:inkscape="http://www.inkscape.org/namespaces/inkscape"
   xmlns:sodipodi="http://sodipodi.sourceforge.net/DTD/sodipodi-0.dtd"
   xmlns="http://www.w3.org/2000/svg"
   xmlns:svg="http://www.w3.org/2000/svg"><sodipodi:namedview
     id="namedview1"
     pagecolor="#505050"
     bordercolor="#eeeeee"
     borderopacity="1"
     inkscape:showpageshadow="0"
     inkscape:pageopacity="0"
     inkscape:pagecheckerboard="0"
     inkscape:deskcolor="#505050"
     inkscape:document-units="mm" /><defs
     id="defs1" /><g
     inkscape:label="Layer 1"
     inkscape:groupmode="layer"
     id="layer1"
     transform="translate(-25.892653,-64.463766)"><path
       style="fill:#000000"
       d="m 57.136781,219.65838 c -5.75601,-0.37647 -9.61031,-1.24426 -13.49201,-3.03772 -5.866712,-2.71059 -11.255924,-7.95899 -14.189152,-13.81842 -0.918992,-1.83578 -2.1358,-5.52875 -2.636026,-8.00023 -0.898522,-4.43937 -1.003112,-11.03426 -0.889573,-56.09167 0.117605,-46.670714 0.109741,-46.381534 1.394272,-51.272214 1.497757,-5.70251 3.674405,-9.476963 7.904678,-13.707236 5.319302,-5.319302 11.036021,-7.988025 19.074241,-8.904385 4.33844,-0.494583 94.211489,-0.47836 98.622599,0.0178 8.16678,0.918601 13.77861,3.523975 19.14122,8.886583 5.3193,5.319303 7.98803,11.036018 8.90439,19.074238 0.49458,4.33844 0.47836,94.211504 -0.0178,98.622614 -0.98527,8.75952 -4.2238,15.203 -10.4198,20.7316 -4.27677,3.81608 -10.36581,6.42398 -17.01684,7.28819 -2.81171,0.36534 -91.066069,0.55841 -96.380189,0.21085 z M 101.9313,189.5764 c 10.5278,-2.89429 18.03908,-9.78311 21.66205,-19.86692 1.43206,-3.98585 1.4859,-4.88496 1.4859,-24.81609 0,-10.09463 0.0653,-18.35388 0.14515,-18.35388 0.0798,0 1.13235,0.59414 2.33892,1.32032 3.94899,2.37669 8.30274,4.09397 12.39393,4.88862 1.20319,0.2337 2.45551,0.48238 2.78294,0.55261 l 0.59531,0.1277 v -10.1915 -10.1915 h -1.14203 c -2.50541,0 -6.45731,-1.02904 -9.17672,-2.38955 -0.80037,-0.40041 -2.46724,-1.55948 -3.70417,-2.57569 -4.1338,-3.39619 -6.39567,-6.72648 -7.94877,-11.703514 l -0.7018,-2.24896 -6.12576,-0.071 -6.12575,-0.071 -0.004,33.540814 c -0.004,35.74674 0.0235,34.91903 -1.26674,37.90874 -1.25547,2.90917 -4.53613,6.06099 -7.454269,7.16153 -5.25879,1.98327 -10.70318,0.80961 -14.94777,-3.22233 -2.09116,-1.9864 -3.34422,-4.21671 -3.8411,-6.83674 -0.80798,-4.26049 0.42069,-8.72488 3.25719,-11.835 3.38406,-3.7105 7.76063,-5.21383 13.07795,-4.49222 l 1.65365,0.22442 v -8.34414 -8.34414 l -1.22564,-0.1838 c -0.6741,-0.10109 -2.90652,-0.11962 -4.96094,-0.0412 -5.91684,0.22591 -10.53211,1.68987 -15.28161,4.84733 -3.60523,2.39675 -7.91528,7.26242 -10.07191,11.3703 -5.8905,11.22006 -3.91871,25.96793 4.64317,34.72825 4.82949,4.94142 10.12278,7.95547 16.3136,9.28909 3.33617,0.71868 10.7138,0.62096 13.629129,-0.18052 z"
       id="path1" /></g></svg>
