<?xml version="1.0" encoding="UTF-8" standalone="no"?>
<!-- Created with Inkscape (http://www.inkscape.org/) -->

<svg
   width="126.80747mm"
   height="135.18744mm"
   viewBox="0 0 126.80747 135.18744"
   version="1.1"
   id="svg1"
   xml:space="preserve"
   xmlns:inkscape="http://www.inkscape.org/namespaces/inkscape"
   xmlns:sodipodi="http://sodipodi.sourceforge.net/DTD/sodipodi-0.dtd"
   xmlns="http://www.w3.org/2000/svg"
   xmlns:svg="http://www.w3.org/2000/svg"><sodipodi:namedview
     id="namedview1"
     pagecolor="#505050"
     bordercolor="#eeeeee"
     borderopacity="1"
     inkscape:showpageshadow="0"
     inkscape:pageopacity="0"
     inkscape:pagecheckerboard="0"
     inkscape:deskcolor="#505050"
     inkscape:document-units="mm" /><defs
     id="defs1" /><g
     inkscape:label="Layer 1"
     inkscape:groupmode="layer"
     id="layer1"
     transform="translate(-44.82396,-146.48155)"><path
       style="fill:#000000"
       d="m 76.411043,250.02116 -31.587082,-31.62861 8.766597,-8.76659 8.766595,-8.7666 15.54528,15.5436 c 8.5499,8.54898 15.63384,15.5436 15.74208,15.5436 0.10824,0 0.22693,-19.19883 0.26375,-42.66406 l 0.0669,-42.66406 14.221357,-0.0684 14.22135,-0.0685 v 42.73251 c 0,23.50287 0.0897,42.7325 0.19928,42.7325 0.1096,0 7.22307,-7.02455 15.8077,-15.61011 l 15.60843,-15.6101 8.79908,8.79614 8.79908,8.79614 -31.68397,31.6848 c -17.42619,17.42664 -31.7437,31.67614 -31.81668,31.66556 -0.073,-0.0106 -14.346897,-14.2521 -31.719787,-31.64783 z"
       id="path7" /></g></svg>
