<?xml version="1.0" encoding="UTF-8" standalone="no"?>
<!-- Created with Inkscape (http://www.inkscape.org/) -->

<svg
   width="118.26874mm"
   height="118.41528mm"
   viewBox="0 0 118.26874 118.41528"
   version="1.1"
   id="svg1"
   xml:space="preserve"
   xmlns:inkscape="http://www.inkscape.org/namespaces/inkscape"
   xmlns:sodipodi="http://sodipodi.sourceforge.net/DTD/sodipodi-0.dtd"
   xmlns="http://www.w3.org/2000/svg"
   xmlns:svg="http://www.w3.org/2000/svg"><sodipodi:namedview
     id="namedview1"
     pagecolor="#505050"
     bordercolor="#eeeeee"
     borderopacity="1"
     inkscape:showpageshadow="0"
     inkscape:pageopacity="0"
     inkscape:pagecheckerboard="0"
     inkscape:deskcolor="#505050"
     inkscape:document-units="mm" /><defs
     id="defs1" /><g
     inkscape:label="Layer 1"
     inkscape:groupmode="layer"
     id="layer1"
     transform="translate(-41.089734,-93.92703)"><path
       style="fill:#000000"
       d="m 54.980358,212.16912 c -3.341043,-0.58212 -6.438724,-2.22806 -8.984556,-4.77389 -1.990758,-1.99076 -3.190181,-3.89027 -4.197193,-6.64707 l -0.708875,-1.94061 v -45.64062 -45.64062 l 0.708875,-1.94062 c 1.007012,-2.75679 2.206435,-4.65631 4.197193,-6.647066 1.990759,-1.99076 3.890086,-3.190064 6.646983,-4.197144 l 1.940698,-0.70892 44.776201,-0.0706 c 50.062626,-0.079 46.721436,-0.19949 50.825206,1.83342 3.85848,1.911404 6.85083,5.37236 8.46466,9.79025 l 0.70893,1.9407 v 45.64062 45.64062 l -0.70893,1.9407 c -1.00708,2.7569 -2.20638,4.65622 -4.19714,6.64698 -1.99076,1.99076 -3.89009,3.19006 -6.64698,4.19714 l -1.9407,0.70893 -44.84687,0.0376 c -24.665786,0.0207 -45.382658,-0.0557 -46.037502,-0.16981 z m 82.675392,-30.14875 c 1.67854,-0.82599 3.29581,-2.44326 4.1218,-4.1218 l 0.6476,-1.31602 0.0734,-17.66093 c 0.0403,-9.71352 0.0131,-17.66094 -0.0606,-17.66094 -0.0737,0 -8.35461,5.30624 -18.4021,11.79164 -10.04749,6.4854 -18.83086,12.05158 -19.51859,12.36927 -1.05599,0.48781 -1.72356,0.57763 -4.29313,0.57763 -2.559436,0 -3.239036,-0.0907 -4.278776,-0.57128 -0.67984,-0.3142 -9.45992,-5.88037 -19.51129,-12.36927 -10.051363,-6.48889 -18.335521,-11.79799 -18.409238,-11.79799 -0.07372,0 -0.134031,7.72014 -0.134031,17.15586 0,13.72318 0.07218,17.3957 0.36073,18.35448 0.763466,2.53681 3.055115,4.86592 5.564958,5.65594 0.868305,0.27332 8.239731,0.33168 36.804517,0.29139 l 35.71875,-0.0504 z m -15.67225,-37.69193 20.56877,-13.25422 -0.16257,-0.79375 c -0.49371,-2.41048 -2.40674,-4.8218 -4.73395,-5.96699 l -1.31602,-0.64759 H 100.22411 64.108483 l -1.322917,0.65514 c -2.340994,1.15933 -4.28433,3.60448 -4.736398,5.95944 l -0.152371,0.79375 20.526067,13.22917 c 11.28934,7.27604 20.78322,13.30363 21.09751,13.39464 0.3143,0.091 0.869096,0.10228 1.232896,0.025 0.36381,-0.0772 9.91741,-6.10482 21.23023,-13.39464 z"
       id="path1" /></g></svg>
