<?xml version="1.0" encoding="UTF-8" standalone="no"?>
<!-- Created with Inkscape (http://www.inkscape.org/) -->

<svg
   width="112.18233mm"
   height="120.91461mm"
   viewBox="0 0 112.18233 120.91461"
   version="1.1"
   id="svg1"
   xml:space="preserve"
   xmlns:inkscape="http://www.inkscape.org/namespaces/inkscape"
   xmlns:sodipodi="http://sodipodi.sourceforge.net/DTD/sodipodi-0.dtd"
   xmlns="http://www.w3.org/2000/svg"
   xmlns:svg="http://www.w3.org/2000/svg"><sodipodi:namedview
     id="namedview1"
     pagecolor="#505050"
     bordercolor="#eeeeee"
     borderopacity="1"
     inkscape:showpageshadow="0"
     inkscape:pageopacity="0"
     inkscape:pagecheckerboard="0"
     inkscape:deskcolor="#505050"
     inkscape:document-units="mm" /><defs
     id="defs1" /><g
     inkscape:label="Layer 1"
     inkscape:groupmode="layer"
     id="layer1"
     transform="translate(-45.904176,-72.185041)"><path
       style="fill:#000000"
       d="m 99.614593,192.82624 c 0,-0.15037 0.23501,-3.21623 0.522237,-6.81302 1.03793,-12.99714 1.20665,-20.84982 0.48956,-22.78536 -0.23448,-0.63289 -0.24676,-0.6347 -3.203277,-0.47371 -3.46893,0.18889 -11.11834,1.14783 -19.47358,2.44121 -3.25729,0.50423 -6.00859,0.91678 -6.11399,0.91678 -0.1054,0 0.55565,-1.75617 1.46899,-3.90261 2.41495,-5.67533 2.44392,-5.10972 -0.4004,-7.81646 -2.79192,-2.65688 -11.49183,-9.65578 -20.58971,-16.56402 -3.52564,-2.6771 -6.41025,-4.95982 -6.41025,-5.07271 0,-0.11288 0.44648,-0.34895 0.99219,-0.52458 2.3963,-0.77123 6.41448,-2.86816 6.70099,-3.49698 0.57963,-1.27215 -1.25333,-8.22436 -4.23392,-16.05881 -0.57929,-1.52265 -1.02341,-2.7983 -0.98694,-2.83477 0.0365,-0.0365 1.66801,0.45682 3.62564,1.09622 6.43381,2.10139 11.46804,3.19014 12.93762,2.79802 0.9607,-0.25633 1.99104,-2.42338 2.86511,-6.02597 0.39665,-1.63484 0.78144,-2.9743 0.85508,-2.97656 0.0736,-0.002 2.0977,2.15092 4.49792,4.78485 4.56948,5.01443 10.37541,10.81541 11.34285,11.33317 0.50075,0.26799 0.60048,0.21732 0.85587,-0.43492 0.62011,-1.5836 -0.77246,-11.46312 -3.60466,-25.573097 -0.81389,-4.05479 -1.44144,-7.4107 -1.39455,-7.45759 0.0469,-0.0469 1.51168,0.84254 3.25509,1.97651 3.81897,2.48398 6.29346,3.79948 6.91996,3.67882 0.255,-0.0491 0.9145,-0.68382 1.46557,-1.41046 1.01862,-1.34319 5.83674,-10.6856 8.425047,-16.33629 0.78321,-1.70987 1.49316,-3.10886 1.57766,-3.10886 0.0845,0 0.73258,1.27992 1.44017,2.84427 2.19201,4.84619 7.51352,15.21415 8.49419,16.54934 0.51289,0.69831 1.12639,1.34405 1.36335,1.43498 0.56759,0.2178 3.41455,-1.26498 7.20142,-3.75071 1.66423,-1.09241 3.07338,-1.93869 3.13146,-1.88061 0.0581,0.0581 -0.3722,2.40721 -0.95617,5.22031 -3.23301,15.574007 -4.83152,26.938307 -3.95206,28.096277 0.35394,0.46604 0.45642,0.42286 1.94352,-0.81891 1.81765,-1.51778 6.49227,-6.32042 11.21442,-11.52154 1.81199,-1.99579 3.37308,-3.53962 3.46909,-3.43074 0.096,0.10888 0.42905,1.23497 0.74009,2.50243 0.69748,2.84211 1.50021,5.02416 2.13806,5.81187 0.41217,0.50902 0.71412,0.59102 2.04084,0.55424 1.74316,-0.0483 8.30662,-1.67548 12.5067,-3.10058 1.51693,-0.51469 2.79323,-0.90064 2.83621,-0.85766 0.043,0.043 -0.29313,1.02436 -0.74692,2.18083 -2.64828,6.74906 -4.98826,15.13339 -4.62618,16.57602 0.13003,0.5181 0.70492,0.9054 2.74974,1.85252 1.42193,0.6586 3.15043,1.4219 3.84111,1.69622 0.69068,0.27431 1.25623,0.56737 1.25677,0.65124 5.5e-4,0.0839 -2.88311,2.34606 -6.40813,5.02708 -9.45389,7.19036 -17.85714,13.95733 -20.62293,16.60723 l -2.43923,2.33702 0.58822,1.79185 c 0.32352,0.98552 1.16675,3.08836 1.87384,4.67298 0.70709,1.58463 1.19575,2.88114 1.08592,2.88114 -0.10984,0 -2.86477,-0.41255 -6.12206,-0.91678 -8.33896,-1.29086 -16.00281,-2.25221 -19.45214,-2.44006 -2.71494,-0.14786 -2.96723,-0.12103 -3.21096,0.34142 -0.77271,1.46618 -0.6059,9.56018 0.47776,23.18108 0.28616,3.59679 0.52029,6.60312 0.52029,6.68073 0,0.0776 -1.07157,0.14111 -2.38125,0.14111 -1.46231,0 -2.381247,-0.10551 -2.381247,-0.2734 z"
       id="path1"
       inkscape:label="path1" /></g></svg>
