<?xml version="1.0" encoding="UTF-8" standalone="no"?>
<!-- Created with Inkscape (http://www.inkscape.org/) -->

<svg
   width="79.370232mm"
   height="96.255577mm"
   viewBox="0 0 79.370232 96.255577"
   version="1.1"
   id="svg1"
   xml:space="preserve"
   xmlns:inkscape="http://www.inkscape.org/namespaces/inkscape"
   xmlns:sodipodi="http://sodipodi.sourceforge.net/DTD/sodipodi-0.dtd"
   xmlns="http://www.w3.org/2000/svg"
   xmlns:svg="http://www.w3.org/2000/svg"><sodipodi:namedview
     id="namedview1"
     pagecolor="#505050"
     bordercolor="#eeeeee"
     borderopacity="1"
     inkscape:showpageshadow="0"
     inkscape:pageopacity="0"
     inkscape:pagecheckerboard="0"
     inkscape:deskcolor="#505050"
     inkscape:document-units="mm" /><defs
     id="defs1" /><g
     inkscape:label="Layer 1"
     inkscape:groupmode="layer"
     id="layer1"
     transform="translate(-63.965345,-93.985997)"><path
       style="fill:#000000"
       d="m 108.41044,93.985994 -0.004,33.541106 c -0.004,35.7467 0.0237,34.91857 -1.26659,37.90828 -1.25547,2.90917 -4.53619,6.0613 -7.454322,7.16184 -5.258785,1.98326 -10.703339,0.80939 -14.947925,-3.22255 -2.091158,-1.98639 -3.343713,-4.21676 -3.840592,-6.83679 -0.807979,-4.26048 0.420668,-8.72482 3.257165,-11.83493 3.384057,-3.7105 7.76044,-5.21385 13.077755,-4.49224 l 1.653646,0.2248 v -8.3442 -8.34419 l -1.225765,-0.18397 c -0.674099,-0.10109 -2.90652,-0.11976 -4.960937,-0.0413 -5.916835,0.22591 -10.53226,1.68979 -15.281755,4.84725 -3.605226,2.39675 -7.915109,7.26249 -10.071737,11.37036 -5.890494,11.22005 -3.918744,25.96832 4.643128,34.72863 4.829485,4.94142 10.122919,7.95522 16.313733,9.28884 3.336166,0.71868 10.713816,0.62113 13.629146,-0.18035 10.52779,-2.89428 18.03927,-9.7832 21.66224,-19.867 1.43206,-3.98585 1.4857,-4.88495 1.4857,-24.81606 0,-10.09462 0.0654,-18.35392 0.14521,-18.35392 0.0798,0 1.1323,0.59416 2.33887,1.32034 3.94899,2.37668 8.30289,4.09394 12.39408,4.88859 1.20319,0.2337 2.45534,0.48219 2.78277,0.55242 l 0.59532,0.12764 v -10.19111 -10.19163 h -1.14205 c -2.50541,0 -6.4573,-1.02901 -9.1767,-2.38952 -0.80037,-0.4004 -2.46724,-1.55934 -3.70417,-2.57555 -4.1338,-3.39619 -6.39577,-6.72665 -7.94887,-11.703677 l -0.70176,-2.248958 -6.12573,-0.07131 z"
       id="path5" /></g></svg>
